{
  "asset": {
    "generator": "Khronos glTF Blender I/O v4.0.44",
    "version": "2.0"
  },
  "scene": 0,
  "scenes": [
    {
      "name": "Scene",
      "nodes": [
        0
      ]
    }
  ],
  "nodes": [
    {
      "mesh": 0,
      "name": "Bed_Twin1"
    }
  ],
  "materials": [
    {
      "doubleSided": true,
      "name": "MI_Trim_Furniture",
      "pbrMetallicRoughness": {
        "baseColorFactor": [
          0.34,
          0.19,
          0.08,
          1
        ],
        "metallicFactor": 0,
        "roughnessFactor": 0.88
      }
    },
    {
      "doubleSided": true,
      "name": "MI_Trim_Metal",
      "pbrMetallicRoughness": {
        "baseColorFactor": [
          0.3,
          0.32,
          0.34,
          1
        ],
        "metallicFactor": 0.22,
        "roughnessFactor": 0.58
      }
    },
    {
      "doubleSided": true,
      "name": "MI_Trim_Cloth",
      "pbrMetallicRoughness": {
        "baseColorFactor": [
          0.48,
          0.16,
          0.12,
          1
        ],
        "metallicFactor": 0,
        "roughnessFactor": 0.88
      }
    }
  ],
  "meshes": [
    {
      "name": "Cube.188",
      "primitives": [
        {
          "attributes": {
            "COLOR_0": 0,
            "POSITION": 1,
            "NORMAL": 2,
            "TEXCOORD_0": 3
          },
          "indices": 4,
          "material": 0
        },
        {
          "attributes": {
            "COLOR_0": 5,
            "POSITION": 6,
            "NORMAL": 7,
            "TEXCOORD_0": 8
          },
          "indices": 9,
          "material": 1
        },
        {
          "attributes": {
            "COLOR_0": 10,
            "POSITION": 11,
            "NORMAL": 12,
            "TEXCOORD_0": 13
          },
          "indices": 14,
          "material": 2
        }
      ]
    }
  ],
  "accessors": [
    {
      "bufferView": 0,
      "componentType": 5123,
      "count": 1232,
      "normalized": true,
      "type": "VEC4"
    },
    {
      "bufferView": 1,
      "componentType": 5126,
      "count": 1232,
      "max": [
        0.9378617405891418,
        0.8055568933486938,
        1.205949068069458
      ],
      "min": [
        -0.9378617405891418,
        0.0004533232713583857,
        -1.205949068069458
      ],
      "type": "VEC3"
    },
    {
      "bufferView": 2,
      "componentType": 5126,
      "count": 1232,
      "type": "VEC3"
    },
    {
      "bufferView": 3,
      "componentType": 5126,
      "count": 1232,
      "type": "VEC2"
    },
    {
      "bufferView": 4,
      "componentType": 5123,
      "count": 2988,
      "type": "SCALAR"
    },
    {
      "bufferView": 5,
      "componentType": 5123,
      "count": 160,
      "normalized": true,
      "type": "VEC4"
    },
    {
      "bufferView": 6,
      "componentType": 5126,
      "count": 160,
      "max": [
        0.7206220030784607,
        0.7600604295730591,
        1.138973593711853
      ],
      "min": [
        -0.7275890111923218,
        0.16273373365402222,
        -1.1464409828186035
      ],
      "type": "VEC3"
    },
    {
      "bufferView": 7,
      "componentType": 5126,
      "count": 160,
      "type": "VEC3"
    },
    {
      "bufferView": 8,
      "componentType": 5126,
      "count": 160,
      "type": "VEC2"
    },
    {
      "bufferView": 9,
      "componentType": 5123,
      "count": 528,
      "type": "SCALAR"
    },
    {
      "bufferView": 10,
      "componentType": 5123,
      "count": 302,
      "normalized": true,
      "type": "VEC4"
    },
    {
      "bufferView": 11,
      "componentType": 5126,
      "count": 302,
      "max": [
        0.6707859039306641,
        0.6944201588630676,
        1.0489273071289062
      ],
      "min": [
        -0.6707857847213745,
        0.27071884274482727,
        -1.0911182165145874
      ],
      "type": "VEC3"
    },
    {
      "bufferView": 12,
      "componentType": 5126,
      "count": 302,
      "type": "VEC3"
    },
    {
      "bufferView": 13,
      "componentType": 5126,
      "count": 302,
      "type": "VEC2"
    },
    {
      "bufferView": 14,
      "componentType": 5123,
      "count": 1284,
      "type": "SCALAR"
    }
  ],
  "bufferViews": [
    {
      "buffer": 0,
      "byteLength": 9856,
      "byteOffset": 0,
      "target": 34962
    },
    {
      "buffer": 0,
      "byteLength": 14784,
      "byteOffset": 9856,
      "target": 34962
    },
    {
      "buffer": 0,
      "byteLength": 14784,
      "byteOffset": 24640,
      "target": 34962
    },
    {
      "buffer": 0,
      "byteLength": 9856,
      "byteOffset": 39424,
      "target": 34962
    },
    {
      "buffer": 0,
      "byteLength": 5976,
      "byteOffset": 49280,
      "target": 34963
    },
    {
      "buffer": 0,
      "byteLength": 1280,
      "byteOffset": 55256,
      "target": 34962
    },
    {
      "buffer": 0,
      "byteLength": 1920,
      "byteOffset": 56536,
      "target": 34962
    },
    {
      "buffer": 0,
      "byteLength": 1920,
      "byteOffset": 58456,
      "target": 34962
    },
    {
      "buffer": 0,
      "byteLength": 1280,
      "byteOffset": 60376,
      "target": 34962
    },
    {
      "buffer": 0,
      "byteLength": 1056,
      "byteOffset": 61656,
      "target": 34963
    },
    {
      "buffer": 0,
      "byteLength": 2416,
      "byteOffset": 62712,
      "target": 34962
    },
    {
      "buffer": 0,
      "byteLength": 3624,
      "byteOffset": 65128,
      "target": 34962
    },
    {
      "buffer": 0,
      "byteLength": 3624,
      "byteOffset": 68752,
      "target": 34962
    },
    {
      "buffer": 0,
      "byteLength": 2416,
      "byteOffset": 72376,
      "target": 34962
    },
    {
      "buffer": 0,
      "byteLength": 2568,
      "byteOffset": 74792,
      "target": 34963
    }
  ],
  "buffers": [
    {
      "byteLength": 77360,
      "uri": "Bed_Twin1.bin"
    }
  ]
}