{
  "asset": {
    "generator": "Khronos glTF Blender I/O v4.0.44",
    "version": "2.0"
  },
  "scene": 0,
  "scenes": [
    {
      "name": "Scene",
      "nodes": [
        0
      ]
    }
  ],
  "nodes": [
    {
      "mesh": 0,
      "name": "WeaponStand"
    }
  ],
  "materials": [
    {
      "doubleSided": true,
      "name": "MI_Trim_Furniture",
      "pbrMetallicRoughness": {
        "baseColorFactor": [
          0.34,
          0.19,
          0.08,
          1
        ],
        "metallicFactor": 0,
        "roughnessFactor": 0.88
      }
    },
    {
      "doubleSided": true,
      "name": "MI_Trim_Metal",
      "pbrMetallicRoughness": {
        "baseColorFactor": [
          0.3,
          0.32,
          0.34,
          1
        ],
        "metallicFactor": 0.22,
        "roughnessFactor": 0.58
      }
    }
  ],
  "meshes": [
    {
      "name": "Cube.081",
      "primitives": [
        {
          "attributes": {
            "POSITION": 0,
            "NORMAL": 1,
            "TEXCOORD_0": 2
          },
          "indices": 3,
          "material": 0
        },
        {
          "attributes": {
            "POSITION": 4,
            "NORMAL": 5,
            "TEXCOORD_0": 6
          },
          "indices": 7,
          "material": 1
        }
      ]
    }
  ],
  "accessors": [
    {
      "bufferView": 0,
      "componentType": 5126,
      "count": 1128,
      "max": [
        0.6806306838989258,
        1.0661102533340454,
        0.488442987203598
      ],
      "min": [
        -0.6806306838989258,
        -0.0033770801965147257,
        -0.49469810724258423
      ],
      "type": "VEC3"
    },
    {
      "bufferView": 1,
      "componentType": 5126,
      "count": 1128,
      "type": "VEC3"
    },
    {
      "bufferView": 2,
      "componentType": 5126,
      "count": 1128,
      "type": "VEC2"
    },
    {
      "bufferView": 3,
      "componentType": 5123,
      "count": 2868,
      "type": "SCALAR"
    },
    {
      "bufferView": 4,
      "componentType": 5126,
      "count": 866,
      "max": [
        0.6930983662605286,
        1.1059458255767822,
        0.4648018777370453
      ],
      "min": [
        -0.6930983662605286,
        0.05387667194008827,
        -0.4648018777370453
      ],
      "type": "VEC3"
    },
    {
      "bufferView": 5,
      "componentType": 5126,
      "count": 866,
      "type": "VEC3"
    },
    {
      "bufferView": 6,
      "componentType": 5126,
      "count": 866,
      "type": "VEC2"
    },
    {
      "bufferView": 7,
      "componentType": 5123,
      "count": 3384,
      "type": "SCALAR"
    }
  ],
  "bufferViews": [
    {
      "buffer": 0,
      "byteLength": 13536,
      "byteOffset": 0,
      "target": 34962
    },
    {
      "buffer": 0,
      "byteLength": 13536,
      "byteOffset": 13536,
      "target": 34962
    },
    {
      "buffer": 0,
      "byteLength": 9024,
      "byteOffset": 27072,
      "target": 34962
    },
    {
      "buffer": 0,
      "byteLength": 5736,
      "byteOffset": 36096,
      "target": 34963
    },
    {
      "buffer": 0,
      "byteLength": 10392,
      "byteOffset": 41832,
      "target": 34962
    },
    {
      "buffer": 0,
      "byteLength": 10392,
      "byteOffset": 52224,
      "target": 34962
    },
    {
      "buffer": 0,
      "byteLength": 6928,
      "byteOffset": 62616,
      "target": 34962
    },
    {
      "buffer": 0,
      "byteLength": 6768,
      "byteOffset": 69544,
      "target": 34963
    }
  ],
  "buffers": [
    {
      "byteLength": 76312,
      "uri": "WeaponStand.bin"
    }
  ]
}